<?xml version="1.0" encoding="UTF-8" standalone="no"?>
<svg
   xmlns:dc="http://purl.org/dc/elements/1.1/"
   xmlns:cc="http://creativecommons.org/ns#"
   xmlns:rdf="http://www.w3.org/1999/02/22-rdf-syntax-ns#"
   xmlns:svg="http://www.w3.org/2000/svg"
   xmlns="http://www.w3.org/2000/svg"
   xmlns:sodipodi="http://sodipodi.sourceforge.net/DTD/sodipodi-0.dtd"
   xmlns:inkscape="http://www.inkscape.org/namespaces/inkscape"
   width="250"
   height="75"
   viewBox="0 0 66.14583 19.843749"
   version="1.1"
   id="svg8"
   inkscape:version="1.0.1 (c497b03c, 2020-09-10)"
   sodipodi:docname="mwm.svg"
   inkscape:export-filename="/Users/markus.mahlberg/Documents/git/private/mwmahlberg.github.com/static/logos/mwm.png"
   inkscape:export-xdpi="162"
   inkscape:export-ydpi="162">
  <style
     id="style1361">
.measure-arrow
{
}
.measure-label
{

}
.measure-line
{
}</style>
  <defs
     id="defs2">
    <marker
       style="overflow:visible"
       id="marker1002"
       refX="0"
       refY="0"
       orient="auto"
       inkscape:stockid="DotM"
       inkscape:isstock="true">
      <path
         transform="matrix(0.4,0,0,0.4,2.96,0.4)"
         style="fill:#000000;fill-opacity:1;fill-rule:evenodd;stroke:#000000;stroke-width:1pt;stroke-opacity:1"
         d="m -2.5,-1 c 0,2.76 -2.24,5 -5,5 -2.76,0 -5,-2.24 -5,-5 0,-2.76 2.24,-5 5,-5 2.76,0 5,2.24 5,5 z"
         id="path1000" />
    </marker>
    <marker
       style="overflow:visible"
       id="SemiCircleIn"
       refX="0"
       refY="0"
       orient="auto"
       inkscape:stockid="SemiCircleIn"
       inkscape:isstock="true">
      <path
         transform="scale(0.6)"
         style="fill:#000000;fill-opacity:1;fill-rule:evenodd;stroke:#000000;stroke-width:1pt;stroke-opacity:1"
         d="m -0.37450702,-0.04569258 c 0,2.75999998 2.24000002,4.99999998 5.00000002,4.99999998 v -10 c -2.76,0 -5.00000002,2.24 -5.00000002,5.00000002 z"
         id="path1641" />
    </marker>
    <marker
       style="overflow:visible"
       id="DotM"
       refX="0"
       refY="0"
       orient="auto"
       inkscape:stockid="DotM"
       inkscape:isstock="true"
       inkscape:collect="always">
      <path
         transform="matrix(0.4,0,0,0.4,2.96,0.4)"
         style="fill:#ffffff;fill-opacity:1;fill-rule:evenodd;stroke:#ffffff;stroke-width:1pt;stroke-opacity:1"
         d="m -2.5,-1 c 0,2.76 -2.24,5 -5,5 -2.76,0 -5,-2.24 -5,-5 0,-2.76 2.24,-5 5,-5 2.76,0 5,2.24 5,5 z"
         id="path1527" />
    </marker>
    <marker
       style="overflow:visible"
       id="Arrow2Sstart"
       refX="0"
       refY="0"
       orient="auto"
       inkscape:stockid="Arrow2Sstart"
       inkscape:isstock="true">
      <path
         transform="matrix(0.3,0,0,0.3,-0.69,0)"
         d="M 8.7185878,4.0337352 -2.2072895,0.01601326 8.7185884,-4.0017078 c -1.7454984,2.3720609 -1.7354408,5.6174519 -6e-7,8.035443 z"
         style="fill:#000000;fill-opacity:1;fill-rule:evenodd;stroke:#000000;stroke-width:0.625;stroke-linejoin:round;stroke-opacity:1"
         id="path1493" />
    </marker>
    <marker
       style="overflow:visible"
       id="DotL"
       refX="0"
       refY="0"
       orient="auto"
       inkscape:stockid="DotL"
       inkscape:isstock="true">
      <path
         transform="matrix(0.8,0,0,0.8,5.92,0.8)"
         style="fill:#000000;fill-opacity:1;fill-rule:evenodd;stroke:#000000;stroke-width:1pt;stroke-opacity:1"
         d="m -2.5,-1 c 0,2.76 -2.24,5 -5,5 -2.76,0 -5,-2.24 -5,-5 0,-2.76 2.24,-5 5,-5 2.76,0 5,2.24 5,5 z"
         id="path1524" />
    </marker>
    <marker
       style="overflow:visible"
       id="Arrow2Lend"
       refX="0"
       refY="0"
       orient="auto"
       inkscape:stockid="Arrow2Lend"
       inkscape:isstock="true">
      <path
         transform="matrix(-1.1,0,0,-1.1,-1.1,0)"
         d="M 8.7185878,4.0337352 -2.2072895,0.01601326 8.7185884,-4.0017078 c -1.7454984,2.3720609 -1.7354408,5.6174519 -6e-7,8.035443 z"
         style="fill:#000000;fill-opacity:1;fill-rule:evenodd;stroke:#000000;stroke-width:0.625;stroke-linejoin:round;stroke-opacity:1"
         id="path1484" />
    </marker>
    <marker
       style="overflow:visible"
       id="marker1735"
       refX="0"
       refY="0"
       orient="auto"
       inkscape:stockid="Arrow1Lend"
       inkscape:isstock="true">
      <path
         transform="matrix(-0.8,0,0,-0.8,-10,0)"
         style="fill-rule:evenodd;stroke:#000000;stroke-width:1pt"
         d="M 0,0 5,-5 -12.5,0 5,5 Z"
         id="path1733" />
    </marker>
    <marker
       style="overflow:visible"
       id="Arrow1Lend"
       refX="0"
       refY="0"
       orient="auto"
       inkscape:stockid="Arrow1Lend"
       inkscape:isstock="true">
      <path
         transform="matrix(-0.8,0,0,-0.8,-10,0)"
         style="fill-rule:evenodd;stroke:#000000;stroke-width:1pt"
         d="M 0,0 5,-5 -12.5,0 5,5 Z"
         id="path1466" />
    </marker>
    <inkscape:path-effect
       effect="offset"
       id="path-effect1461"
       is_visible="true"
       lpeversion="1"
       linejoin_type="miter"
       unit="mm"
       offset="0"
       miter_limit="3.3"
       attempt_force_join="true"
       update_on_knot_move="true" />
    <inkscape:path-effect
       effect="vonkoch"
       id="path-effect1459"
       is_visible="true"
       lpeversion="1"
       ref_path="M 42.995063,122.73955 H 57.121208"
       generator="m 42.995063,128.75035 h 4.708715 m 4.708715,0 h 4.708715"
       similar_only="false"
       nbgenerations="1"
       drawall="true"
       maxComplexity="1000" />
    <inkscape:path-effect
       effect="join_type"
       id="path-effect1457"
       is_visible="true"
       lpeversion="1"
       linecap_type="butt"
       line_width="0.5"
       linejoin_type="miter"
       miter_limit="97.8"
       attempt_force_join="true" />
    <inkscape:path-effect
       effect="measure_segments"
       id="path-effect1359"
       is_visible="true"
       lpeversion="1"
       unit="mm"
       orientation="parallel"
       coloropacity="#000000ff"
       fontbutton="Sans 10"
       precision="2"
       fix_overlaps="0"
       position="5"
       text_top_bottom="0"
       helpline_distance="0"
       helpline_overlap="2"
       line_width="0.25"
       scale="1"
       format="{measure}{unit}"
       blacklist=""
       active_projection="false"
       whitelist="false"
       showindex="false"
       arrows_outside="false"
       flip_side="false"
       scale_sensitive="true"
       local_locale="true"
       rotate_anotation="true"
       hide_back="true"
       hide_arrows="false"
       smallx100="false"
       linked_items=""
       distance_projection="20"
       angle_projection="0"
       avoid_overlapping="true"
       onbbox="false"
       bboxonly="false"
       centers="false"
       maxmin="false"
       helpdata="&lt;b&gt;&lt;big&gt;Allgemeines&lt;/big&gt;&lt;/b&gt; Der Effekt zeichnet und positioniert Bemaßungslinien und Beschriftungen.  &lt;b&gt;&lt;big&gt;Projektion&lt;/big&gt;&lt;/b&gt; Zeichnet eine Linie mit Bemaßungen für die gewählten Objekte.  &lt;b&gt;&lt;big&gt;Optionen&lt;/big&gt;&lt;/b&gt; Optionen für Farbe, Genauigkeit, Formatierung der Beschriftungen und die Anzeige  &lt;b&gt;&lt;big&gt;Tipps&lt;/big&gt;&lt;/b&gt; &lt;b&gt;&lt;i&gt;Benutzerdefinierter Stil:&lt;/i&gt;&lt;/b&gt; Um den Stil noch weiter anzupassen, kann der XML-Editor verwendet werden. Dort kann die Klasse oder ID des Objektes bestimmt werden, um dieser dann im Stildialog einen neuen Stil zuzuweisen. &lt;b&gt;&lt;i&gt;Ausschlussliste:&lt;/i&gt;&lt;/b&gt; Die Liste ermöglicht es, Bemaßungen für einige Segmente oder Projektionsschritte nicht anzuzeigen. &lt;b&gt;&lt;i&gt;Mehrere Bemaßungs-LPEs:&lt;/i&gt;&lt;/b&gt; Auf dasselbe Objekt angewendet können so mittels Ausschlusslisten unterschiedlich ausgerichtete Beschriftungen oder weitere Projektionen gezeichnet werden. &lt;b&gt;&lt;i&gt;Standardwerte setzen:&lt;/i&gt;&lt;/b&gt; Unten können für jeden LPE Standardwerte festgelegt werden." />
    <marker
       style="overflow:visible"
       id="DotM-0"
       refX="0"
       refY="0"
       orient="auto"
       inkscape:stockid="DotM"
       inkscape:isstock="true">
      <path
         transform="matrix(0.4,0,0,0.4,2.96,0.4)"
         style="fill:#000000;fill-opacity:1;fill-rule:evenodd;stroke:#000000;stroke-width:1pt;stroke-opacity:1"
         d="m -2.5,-1 c 0,2.76 -2.24,5 -5,5 -2.76,0 -5,-2.24 -5,-5 0,-2.76 2.24,-5 5,-5 2.76,0 5,2.24 5,5 z"
         id="path1527-4" />
    </marker>
    <marker
       style="overflow:visible"
       id="marker2763"
       refX="0"
       refY="0"
       orient="auto"
       inkscape:stockid="DotM"
       inkscape:isstock="true">
      <path
         transform="matrix(0.4,0,0,0.4,2.96,0.4)"
         style="fill:#000000;fill-opacity:1;fill-rule:evenodd;stroke:#000000;stroke-width:1pt;stroke-opacity:1"
         d="m -2.5,-1 c 0,2.76 -2.24,5 -5,5 -2.76,0 -5,-2.24 -5,-5 0,-2.76 2.24,-5 5,-5 2.76,0 5,2.24 5,5 z"
         id="path2761" />
    </marker>
    <marker
       style="overflow:visible"
       id="marker2767"
       refX="0"
       refY="0"
       orient="auto"
       inkscape:stockid="DotM"
       inkscape:isstock="true">
      <path
         transform="matrix(0.4,0,0,0.4,2.96,0.4)"
         style="fill:#000000;fill-opacity:1;fill-rule:evenodd;stroke:#000000;stroke-width:1pt;stroke-opacity:1"
         d="m -2.5,-1 c 0,2.76 -2.24,5 -5,5 -2.76,0 -5,-2.24 -5,-5 0,-2.76 2.24,-5 5,-5 2.76,0 5,2.24 5,5 z"
         id="path2765" />
    </marker>
    <marker
       style="overflow:visible"
       id="DotM-6"
       refX="0"
       refY="0"
       orient="auto"
       inkscape:stockid="DotM"
       inkscape:isstock="true">
      <path
         transform="matrix(0.4,0,0,0.4,2.96,0.4)"
         style="fill:#000000;fill-opacity:1;fill-rule:evenodd;stroke:#000000;stroke-width:1pt;stroke-opacity:1"
         d="m -2.5,-1 c 0,2.76 -2.24,5 -5,5 -2.76,0 -5,-2.24 -5,-5 0,-2.76 2.24,-5 5,-5 2.76,0 5,2.24 5,5 z"
         id="path1527-8" />
    </marker>
    <marker
       style="overflow:visible"
       id="marker3208"
       refX="0"
       refY="0"
       orient="auto"
       inkscape:stockid="DotM"
       inkscape:isstock="true">
      <path
         transform="matrix(0.4,0,0,0.4,2.96,0.4)"
         style="fill:#000000;fill-opacity:1;fill-rule:evenodd;stroke:#000000;stroke-width:1pt;stroke-opacity:1"
         d="m -2.5,-1 c 0,2.76 -2.24,5 -5,5 -2.76,0 -5,-2.24 -5,-5 0,-2.76 2.24,-5 5,-5 2.76,0 5,2.24 5,5 z"
         id="path3206" />
    </marker>
    <marker
       style="overflow:visible"
       id="marker3212"
       refX="0"
       refY="0"
       orient="auto"
       inkscape:stockid="DotM"
       inkscape:isstock="true">
      <path
         transform="matrix(0.4,0,0,0.4,2.96,0.4)"
         style="fill:#000000;fill-opacity:1;fill-rule:evenodd;stroke:#000000;stroke-width:1pt;stroke-opacity:1"
         d="m -2.5,-1 c 0,2.76 -2.24,5 -5,5 -2.76,0 -5,-2.24 -5,-5 0,-2.76 2.24,-5 5,-5 2.76,0 5,2.24 5,5 z"
         id="path3210" />
    </marker>
  </defs>
  <sodipodi:namedview
     id="base"
     pagecolor="#ffffff"
     bordercolor="#666666"
     borderopacity="1.0"
     inkscape:pageopacity="0"
     inkscape:pageshadow="2"
     inkscape:zoom="3.1495298"
     inkscape:cx="51.630467"
     inkscape:cy="26.278485"
     inkscape:document-units="mm"
     inkscape:current-layer="g1530"
     inkscape:document-rotation="0"
     showgrid="false"
     inkscape:snap-intersection-paths="true"
     inkscape:window-width="1248"
     inkscape:window-height="769"
     inkscape:window-x="0"
     inkscape:window-y="25"
     inkscape:window-maximized="0"
     showguides="false"
     units="px"
     width="134px"
     inkscape:pagecheckerboard="true" />
  <metadata
     id="metadata5">
    <rdf:RDF>
      <cc:Work
         rdf:about="">
        <dc:format>image/svg+xml</dc:format>
        <dc:type
           rdf:resource="http://purl.org/dc/dcmitype/StillImage" />
        <dc:title></dc:title>
      </cc:Work>
    </rdf:RDF>
  </metadata>
  <g
     inkscape:groupmode="layer"
     id="layer2"
     inkscape:label="Ebene 2"
     transform="translate(-40.649464,-107.43059)" />
  <g
     inkscape:label="Ebene 1"
     inkscape:groupmode="layer"
     id="layer1"
     transform="translate(-40.649464,-107.43059)" />
  <g
     inkscape:groupmode="layer"
     id="layer3"
     inkscape:label="schrift"
     style="display:none"
     transform="translate(-40.649464,-107.43059)">
    <text
       xml:space="preserve"
       style="font-style:normal;font-variant:normal;font-weight:normal;font-stretch:normal;font-size:3.60883px;line-height:1.25;font-family:STIXGeneral;-inkscape-font-specification:STIXGeneral;fill:#000000;fill-opacity:1;stroke:none;stroke-width:0.115212"
       x="47.905594"
       y="121.73405"
       id="text1310-4"><tspan
         sodipodi:role="line"
         id="tspan1308-9"
         x="47.905594"
         y="121.73405"
         style="font-style:normal;font-variant:normal;font-weight:normal;font-stretch:normal;font-size:3.60883px;font-family:'Eagle Lake';-inkscape-font-specification:'Eagle Lake';stroke-width:0.115212">m</tspan></text>
    <text
       xml:space="preserve"
       style="font-style:normal;font-variant:normal;font-weight:normal;font-stretch:normal;font-size:3.60883px;line-height:1.25;font-family:STIXGeneral;-inkscape-font-specification:STIXGeneral;fill:#000000;fill-opacity:1;stroke:none;stroke-width:0.115212"
       x="47.905594"
       y="127.99143"
       id="text1310-4-9"><tspan
         sodipodi:role="line"
         id="tspan1308-9-4"
         x="47.905594"
         y="127.99143"
         style="font-style:normal;font-variant:normal;font-weight:normal;font-stretch:normal;font-size:3.60883px;font-family:'Eagle Lake';-inkscape-font-specification:'Eagle Lake';stroke-width:0.115212">m</tspan></text>
    <text
       xml:space="preserve"
       style="font-style:normal;font-variant:normal;font-weight:normal;font-stretch:normal;font-size:3.60883px;line-height:1.25;font-family:STIXGeneral;-inkscape-font-specification:STIXGeneral;fill:#000000;fill-opacity:1;stroke:none;stroke-width:0.115212"
       x="48.00956"
       y="125.26833"
       id="text1310-4-9-2"><tspan
         sodipodi:role="line"
         id="tspan1308-9-4-6"
         x="48.00956"
         y="125.26833"
         style="font-style:normal;font-variant:normal;font-weight:normal;font-stretch:normal;font-size:3.60883px;font-family:'Eagle Lake';-inkscape-font-specification:'Eagle Lake';stroke-width:0.115212">w</tspan></text>
  </g>
  <g
     inkscape:groupmode="layer"
     id="layer4"
     inkscape:label="schrift 2"
     transform="translate(-40.649464,-107.43059)">
    <g
       id="g1530"
       transform="matrix(1.0627189,0,0,1.0627189,-2.5494915,-8.5815771)">
      <g
         id="g4173"
         transform="matrix(1.2071911,0,0,1.2071911,-7.9243684,-22.598911)">
        <path
           style="fill:#ffffff;fill-opacity:1;stroke:#ffffff;stroke-width:0.395213;stroke-linecap:butt;stroke-linejoin:miter;stroke-miterlimit:3.1;stroke-dasharray:none;stroke-opacity:1;marker-start:url(#DotM);marker-mid:url(#DotM);marker-end:url(#DotM);paint-order:stroke fill markers"
           d="m 45.003905,115.07661 h 6.478333 3.911294"
           id="path48"
           sodipodi:nodetypes="ccc" />
        <path
           id="path31"
           style="color:#000000;font-style:normal;font-variant:normal;font-weight:normal;font-stretch:normal;font-size:medium;line-height:normal;font-family:sans-serif;font-variant-ligatures:normal;font-variant-position:normal;font-variant-caps:normal;font-variant-numeric:normal;font-variant-alternates:normal;font-variant-east-asian:normal;font-feature-settings:normal;font-variation-settings:normal;text-indent:0;text-align:start;text-decoration:none;text-decoration-line:none;text-decoration-style:solid;text-decoration-color:#000000;letter-spacing:normal;word-spacing:normal;text-transform:none;writing-mode:lr-tb;direction:ltr;text-orientation:mixed;dominant-baseline:auto;baseline-shift:baseline;text-anchor:start;white-space:normal;shape-padding:0;shape-margin:0;inline-size:0;clip-rule:nonzero;display:inline;overflow:visible;visibility:visible;isolation:auto;mix-blend-mode:normal;color-interpolation:sRGB;color-interpolation-filters:linearRGB;solid-color:#000000;solid-opacity:1;vector-effect:none;fill:#000000;fill-opacity:1;fill-rule:evenodd;stroke:#ffffff;stroke-width:0.395083;stroke-linecap:butt;stroke-linejoin:miter;stroke-miterlimit:4;stroke-dasharray:none;stroke-dashoffset:0;stroke-opacity:1;color-rendering:auto;image-rendering:auto;shape-rendering:auto;text-rendering:auto;enable-background:accumulate;stop-color:#000000"
           d="m 48.230443,109.45041 c -4.07713,0 -7.382957,3.32872 -7.382956,7.43334 10e-7,4.1046 3.305828,7.43273 7.382956,7.43273 4.077127,0 7.382955,-3.32813 7.382955,-7.43273 0,-4.10462 -3.305826,-7.43334 -7.382955,-7.43334 z m 0,0.0796 c 4.034562,0 7.304463,3.29195 7.304463,7.35371 0,4.06177 -3.269903,7.35372 -7.304463,7.35372 -4.034561,0 -7.304462,-3.29195 -7.304464,-7.35372 0,-4.06176 3.269901,-7.35371 7.304464,-7.35371 z" />
        <path
           style="color:#000000;font-style:normal;font-variant:normal;font-weight:normal;font-stretch:normal;font-size:medium;line-height:normal;font-family:sans-serif;font-variant-ligatures:normal;font-variant-position:normal;font-variant-caps:normal;font-variant-numeric:normal;font-variant-alternates:normal;font-variant-east-asian:normal;font-feature-settings:normal;font-variation-settings:normal;text-indent:0;text-align:start;text-decoration:none;text-decoration-line:none;text-decoration-style:solid;text-decoration-color:#000000;letter-spacing:normal;word-spacing:normal;text-transform:none;writing-mode:lr-tb;direction:ltr;text-orientation:mixed;dominant-baseline:auto;baseline-shift:baseline;text-anchor:start;white-space:normal;shape-padding:0;shape-margin:0;inline-size:0;clip-rule:nonzero;display:inline;overflow:visible;visibility:visible;isolation:auto;mix-blend-mode:normal;color-interpolation:sRGB;color-interpolation-filters:linearRGB;solid-color:#000000;solid-opacity:1;vector-effect:none;fill:#ffffff;fill-opacity:1;fill-rule:nonzero;stroke:#ffffff;stroke-width:0.395083;stroke-linecap:butt;stroke-linejoin:bevel;stroke-miterlimit:4;stroke-dasharray:none;stroke-dashoffset:0;stroke-opacity:1;paint-order:markers stroke fill;color-rendering:auto;image-rendering:auto;shape-rendering:auto;text-rendering:auto;enable-background:accumulate;stop-color:#000000"
           d="m 48.184723,109.53014 -0.03406,0.0587 -3.146742,5.48741 -3.180803,5.5467 h 6.361603 6.361604 l -3.180801,-5.5467 z m 0,0.1575 3.113261,5.42813 3.112683,5.42813 h -6.225944 -6.225942 l 3.112682,-5.42813 z"
           id="path40" />
      </g>
      <text
         xml:space="preserve"
         style="font-style:normal;font-weight:normal;font-size:11.9505px;line-height:2.48419px;font-family:sans-serif;fill:#ffffff;fill-opacity:1;stroke:#ffffff;stroke-width:0.354541;stroke-opacity:0"
         x="65.681946"
         y="121.01331"
         id="text1312"><tspan
           style="font-style:normal;font-variant:normal;font-weight:normal;font-stretch:normal;font-size:11.9505px;font-family:'Eagle Lake';-inkscape-font-specification:'Eagle Lake';fill:#ffffff;fill-opacity:1;stroke:#ffffff;stroke-width:0.354541;stroke-opacity:0"
           sodipodi:role="line"
           id="tspan1314"
           x="65.681946"
           y="121.01331">mwm</tspan></text>
    </g>
  </g>
</svg>
